<?xml version="1.0" encoding="utf-8"?>
<!-- Generator: Adobe Illustrator 17.0.0, SVG Export Plug-In . SVG Version: 6.00 Build 0)  -->
<!DOCTYPE svg PUBLIC "-//W3C//DTD SVG 1.1//EN" "http://www.w3.org/Graphics/SVG/1.1/DTD/svg11.dtd">
<svg version="1.1" id="Layer_1" xmlns="http://www.w3.org/2000/svg" xmlns:xlink="http://www.w3.org/1999/xlink" x="0px" y="0px"
	 width="960px" height="560px" viewBox="0 0 960 560" enable-background="new 0 0 960 560" xml:space="preserve">
<symbol  id="Comments" viewBox="-32 -27.907 64 55.813">
	<g>
		<path d="M0,27.907c17.674,0,32-11.559,32-25.816c0-5.69-2.287-10.947-6.153-15.214l5.946-14.783l-25.2,5.065
			C3.96-22.913,1.01-23.55-1.944-23.628c-0.335-0.009-0.669-0.013-1-0.013C-20.078-23.642-32-11.896-32,2.09
			C-32,16.348-17.674,27.907,0,27.907 M0,20.907c-13.785,0-25-8.441-25-18.816c0-10.679,9.481-18.732,22.056-18.732
			c0.271,0,0.542,0.003,0.815,0.011c1.182,0.031,2.474,0.192,3.842,0.361c1.513,0.188,3.076,0.382,4.69,0.426l0.792,0.021
			l0.777-0.156l12.487-2.51l-1.107,2.753l-1.636,4.065l2.942,3.248C22.64-6.238,25-2.64,25,2.09C25,12.466,13.785,20.907,0,20.907
			L0,20.907z"/>
	</g>
</symbol>
<g opacity="0.2">
	
		<use xlink:href="#Comments"  width="64" height="55.813" x="-32" y="-27.907" transform="matrix(0.3561 0 0 -0.4433 613.7881 251.2072)" overflow="visible"/>
	
		<use xlink:href="#Comments"  width="64" height="55.813" x="-32" y="-27.907" transform="matrix(0.3561 0 0 -0.4433 604.3428 247.9822)" overflow="visible"/>
	
		<use xlink:href="#Comments"  width="64" height="55.813" x="-32" y="-27.907" transform="matrix(0.3561 0 0 -0.4433 609.1478 265.6709)" overflow="visible"/>
	
		<use xlink:href="#Comments"  width="64" height="55.813" x="-32" y="-27.907" transform="matrix(0.3561 0 0 -0.4433 594.2698 272.806)" overflow="visible"/>
	
		<use xlink:href="#Comments"  width="64" height="55.813" x="-32" y="-27.907" transform="matrix(0.3561 0 0 -0.4433 567.7755 278.9426)" overflow="visible"/>
	
		<use xlink:href="#Comments"  width="64" height="55.813" x="-32" y="-27.907" transform="matrix(0.3561 0 0 -0.4433 544.9589 278.3249)" overflow="visible"/>
	
		<use xlink:href="#Comments"  width="64" height="55.813" x="-32" y="-27.907" transform="matrix(0.3561 0 0 -0.4433 531.0593 264.8217)" overflow="visible"/>
	
		<use xlink:href="#Comments"  width="64" height="55.813" x="-32" y="-27.907" transform="matrix(0.3561 0 0 -0.4433 519.3257 243.6806)" overflow="visible"/>
	
		<use xlink:href="#Comments"  width="64" height="55.813" x="-32" y="-27.907" transform="matrix(0.3561 0 0 -0.4433 514.7501 223.0651)" overflow="visible"/>
	
		<use xlink:href="#Comments"  width="64" height="55.813" x="-32" y="-27.907" transform="matrix(0.3561 0 0 -0.4433 522.2678 193.7169)" overflow="visible"/>
	
		<use xlink:href="#Comments"  width="64" height="55.813" x="-32" y="-27.907" transform="matrix(0.3561 0 0 -0.4433 527.2513 152.973)" overflow="visible"/>
	
		<use xlink:href="#Comments"  width="64" height="55.813" x="-32" y="-27.907" transform="matrix(0.3561 0 0 -0.4433 537.7934 143.3703)" overflow="visible"/>
	
		<use xlink:href="#Comments"  width="64" height="55.813" x="-32" y="-27.907" transform="matrix(0.3561 0 0 -0.4433 649.8777 220.7409)" overflow="visible"/>
	
		<use xlink:href="#Comments"  width="64" height="55.813" x="-32" y="-27.907" transform="matrix(0.3561 0 0 -0.4433 693.5248 230.4333)" overflow="visible"/>
	
		<use xlink:href="#Comments"  width="64" height="55.813" x="-32" y="-27.907" transform="matrix(0.3561 0 0 -0.4433 735.213 240.6993)" overflow="visible"/>
	
		<use xlink:href="#Comments"  width="64" height="55.813" x="-32" y="-27.907" transform="matrix(0.3561 0 0 -0.4433 768.928 253.887)" overflow="visible"/>
	
		<use xlink:href="#Comments"  width="64" height="55.813" x="-32" y="-27.907" transform="matrix(0.3561 0 0 -0.4433 774.606 275.5521)" overflow="visible"/>
	
		<use xlink:href="#Comments"  width="64" height="55.813" x="-32" y="-27.907" transform="matrix(0.3561 0 0 -0.4433 758.6943 301.5089)" overflow="visible"/>
	
		<use xlink:href="#Comments"  width="64" height="55.813" x="-32" y="-27.907" transform="matrix(0.3561 0 0 -0.4433 698.4063 314.7543)" overflow="visible"/>
	
		<use xlink:href="#Comments"  width="64" height="55.813" x="-32" y="-27.907" transform="matrix(0.3561 0 0 -0.4433 608.5833 318.1565)" overflow="visible"/>
	
		<use xlink:href="#Comments"  width="64" height="55.813" x="-32" y="-27.907" transform="matrix(0.3561 0 0 -0.4433 577.1034 321.6297)" overflow="visible"/>
</g>
<path fill="#FF0F31" d="M410.377,285.543c-0.083,6.627-5.522,11.932-12.149,11.849l-330.974-4.127
	c-6.627-0.083-11.932-5.522-11.849-12.149l1.259-100.992c0.083-6.627,5.522-11.932,12.149-11.849l330.974,4.127
	c6.627,0.083,11.932,5.522,11.849,12.149L410.377,285.543z"/>
<text transform="matrix(0.9999 0.0125 -0.0125 0.9999 67.4769 275.2664)"><tspan x="0" y="0" fill="#8FFF15" font-family="'BigNoodleTitling'" font-size="130.7476">youtube </tspan><tspan x="353.663" y="0" fill="#8A4AFF" font-family="'BigNoodleTitling'" font-size="130.7476">thumbnail</tspan></text>
</svg>
